<mxfile host="app.diagrams.net" modified="2022-09-28T09:43:43.128Z" agent="5.0 (Windows NT 10.0; Win64; x64) AppleWebKit/537.36 (KHTML, like Gecko) Chrome/106.0.0.0 Safari/537.36" etag="t9upeiMONJwRsVrjemkO" version="20.3.7" type="github">
  <diagram id="j0cLrZ9uJCZg1elCQZHT" name="Strona-1">
    <mxGraphModel dx="3069" dy="874" grid="1" gridSize="10" guides="1" tooltips="1" connect="1" arrows="1" fold="1" page="1" pageScale="1" pageWidth="827" pageHeight="1169" math="0" shadow="0">
      <root>
        <mxCell id="0" />
        <mxCell id="1" parent="0" />
        <mxCell id="d7iimS9ClQlRTDr_-M0m-63" style="edgeStyle=orthogonalEdgeStyle;rounded=0;orthogonalLoop=1;jettySize=auto;html=1;strokeColor=#7EA6E0;strokeWidth=2;" edge="1" parent="1" source="d7iimS9ClQlRTDr_-M0m-1" target="d7iimS9ClQlRTDr_-M0m-60">
          <mxGeometry relative="1" as="geometry" />
        </mxCell>
        <mxCell id="d7iimS9ClQlRTDr_-M0m-1" value="" style="sketch=0;points=[[0,0,0],[0.25,0,0],[0.5,0,0],[0.75,0,0],[1,0,0],[0,1,0],[0.25,1,0],[0.5,1,0],[0.75,1,0],[1,1,0],[0,0.25,0],[0,0.5,0],[0,0.75,0],[1,0.25,0],[1,0.5,0],[1,0.75,0]];outlineConnect=0;fontColor=#232F3E;gradientColor=#FF4F8B;gradientDirection=north;fillColor=#BC1356;strokeColor=#ffffff;dashed=0;verticalLabelPosition=bottom;verticalAlign=top;align=center;html=1;fontSize=12;fontStyle=0;aspect=fixed;shape=mxgraph.aws4.resourceIcon;resIcon=mxgraph.aws4.api_gateway;" vertex="1" parent="1">
          <mxGeometry x="-270" y="692" width="65" height="65" as="geometry" />
        </mxCell>
        <mxCell id="d7iimS9ClQlRTDr_-M0m-2" value="" style="sketch=0;points=[[0,0,0],[0.25,0,0],[0.5,0,0],[0.75,0,0],[1,0,0],[0,1,0],[0.25,1,0],[0.5,1,0],[0.75,1,0],[1,1,0],[0,0.25,0],[0,0.5,0],[0,0.75,0],[1,0.25,0],[1,0.5,0],[1,0.75,0]];outlineConnect=0;fontColor=#232F3E;gradientColor=#F78E04;gradientDirection=north;fillColor=#D05C17;strokeColor=#ffffff;dashed=0;verticalLabelPosition=bottom;verticalAlign=top;align=center;html=1;fontSize=12;fontStyle=0;aspect=fixed;shape=mxgraph.aws4.resourceIcon;resIcon=mxgraph.aws4.lambda;" vertex="1" parent="1">
          <mxGeometry x="480" y="158" width="78" height="78" as="geometry" />
        </mxCell>
        <mxCell id="d7iimS9ClQlRTDr_-M0m-3" value="AWS Lambda" style="sketch=0;outlineConnect=0;fontColor=#232F3E;gradientColor=none;strokeColor=#ffffff;fillColor=#232F3E;dashed=0;verticalLabelPosition=middle;verticalAlign=bottom;align=center;html=1;whiteSpace=wrap;fontSize=10;fontStyle=1;spacing=3;shape=mxgraph.aws4.productIcon;prIcon=mxgraph.aws4.lambda;" vertex="1" parent="1">
          <mxGeometry x="400" y="30" width="80" height="100" as="geometry" />
        </mxCell>
        <mxCell id="d7iimS9ClQlRTDr_-M0m-4" value="" style="sketch=0;outlineConnect=0;fontColor=#232F3E;gradientColor=none;fillColor=#3F8624;strokeColor=none;dashed=0;verticalLabelPosition=bottom;verticalAlign=top;align=center;html=1;fontSize=12;fontStyle=0;aspect=fixed;pointerEvents=1;shape=mxgraph.aws4.lambda_function;" vertex="1" parent="1">
          <mxGeometry x="630" y="290" width="78" height="78" as="geometry" />
        </mxCell>
        <mxCell id="d7iimS9ClQlRTDr_-M0m-5" value="" style="sketch=0;points=[[0,0,0],[0.25,0,0],[0.5,0,0],[0.75,0,0],[1,0,0],[0,1,0],[0.25,1,0],[0.5,1,0],[0.75,1,0],[1,1,0],[0,0.25,0],[0,0.5,0],[0,0.75,0],[1,0.25,0],[1,0.5,0],[1,0.75,0]];outlineConnect=0;fontColor=#232F3E;gradientColor=#FF4F8B;gradientDirection=north;fillColor=#BC1356;strokeColor=#ffffff;dashed=0;verticalLabelPosition=bottom;verticalAlign=top;align=center;html=1;fontSize=12;fontStyle=0;aspect=fixed;shape=mxgraph.aws4.resourceIcon;resIcon=mxgraph.aws4.eventbridge;" vertex="1" parent="1">
          <mxGeometry x="640" y="70" width="78" height="78" as="geometry" />
        </mxCell>
        <mxCell id="d7iimS9ClQlRTDr_-M0m-6" value="" style="outlineConnect=0;dashed=0;verticalLabelPosition=bottom;verticalAlign=top;align=center;html=1;shape=mxgraph.aws3.dynamo_db;fillColor=#2E73B8;gradientColor=none;" vertex="1" parent="1">
          <mxGeometry x="180" y="48" width="72" height="81" as="geometry" />
        </mxCell>
        <mxCell id="d7iimS9ClQlRTDr_-M0m-7" value="" style="sketch=0;points=[[0,0,0],[0.25,0,0],[0.5,0,0],[0.75,0,0],[1,0,0],[0,1,0],[0.25,1,0],[0.5,1,0],[0.75,1,0],[1,1,0],[0,0.25,0],[0,0.5,0],[0,0.75,0],[1,0.25,0],[1,0.5,0],[1,0.75,0]];outlineConnect=0;fontColor=#232F3E;gradientColor=#60A337;gradientDirection=north;fillColor=#277116;strokeColor=#ffffff;dashed=0;verticalLabelPosition=bottom;verticalAlign=top;align=center;html=1;fontSize=12;fontStyle=0;aspect=fixed;shape=mxgraph.aws4.resourceIcon;resIcon=mxgraph.aws4.s3;" vertex="1" parent="1">
          <mxGeometry x="102" y="30" width="78" height="78" as="geometry" />
        </mxCell>
        <mxCell id="d7iimS9ClQlRTDr_-M0m-8" value="" style="sketch=0;outlineConnect=0;fontColor=#232F3E;gradientColor=none;fillColor=#3F8624;strokeColor=none;dashed=0;verticalLabelPosition=bottom;verticalAlign=top;align=center;html=1;fontSize=12;fontStyle=0;aspect=fixed;pointerEvents=1;shape=mxgraph.aws4.bucket;" vertex="1" parent="1">
          <mxGeometry x="610" y="401" width="75" height="78" as="geometry" />
        </mxCell>
        <mxCell id="d7iimS9ClQlRTDr_-M0m-9" value="" style="outlineConnect=0;dashed=0;verticalLabelPosition=bottom;verticalAlign=top;align=center;html=1;shape=mxgraph.aws3.virtual_private_cloud;fillColor=#F58534;gradientColor=none;" vertex="1" parent="1">
          <mxGeometry x="230" y="440" width="79.5" height="54" as="geometry" />
        </mxCell>
        <mxCell id="d7iimS9ClQlRTDr_-M0m-10" value="Project Zone / Cloud Service Provider" style="sketch=0;points=[[0,0,0],[0.25,0,0],[0.5,0,0],[0.75,0,0],[1,0,0],[1,0.25,0],[1,0.5,0],[1,0.75,0],[1,1,0],[0.75,1,0],[0.5,1,0],[0.25,1,0],[0,1,0],[0,0.75,0],[0,0.5,0],[0,0.25,0]];rounded=1;absoluteArcSize=1;arcSize=2;html=1;strokeColor=none;gradientColor=none;shadow=0;dashed=0;fontSize=12;fontColor=#9E9E9E;align=left;verticalAlign=top;spacing=10;spacingTop=-4;fillColor=#F6F6F6;" vertex="1" parent="1">
          <mxGeometry x="900" y="160" width="780" height="560" as="geometry" />
        </mxCell>
        <mxCell id="d7iimS9ClQlRTDr_-M0m-11" value="Logical Grouping of Services / Instances" style="sketch=0;points=[[0,0,0],[0.25,0,0],[0.5,0,0],[0.75,0,0],[1,0,0],[1,0.25,0],[1,0.5,0],[1,0.75,0],[1,1,0],[0.75,1,0],[0.5,1,0],[0.25,1,0],[0,1,0],[0,0.75,0],[0,0.5,0],[0,0.25,0]];rounded=1;absoluteArcSize=1;arcSize=2;html=1;strokeColor=none;gradientColor=none;shadow=0;dashed=0;fontSize=12;fontColor=#9E9E9E;align=left;verticalAlign=top;spacing=10;spacingTop=-4;fillColor=#E3F2FD;" vertex="1" parent="d7iimS9ClQlRTDr_-M0m-10">
          <mxGeometry width="250" height="180" relative="1" as="geometry">
            <mxPoint x="10" y="50" as="offset" />
          </mxGeometry>
        </mxCell>
        <mxCell id="d7iimS9ClQlRTDr_-M0m-12" value="Zone" style="sketch=0;points=[[0,0,0],[0.25,0,0],[0.5,0,0],[0.75,0,0],[1,0,0],[1,0.25,0],[1,0.5,0],[1,0.75,0],[1,1,0],[0.75,1,0],[0.5,1,0],[0.25,1,0],[0,1,0],[0,0.75,0],[0,0.5,0],[0,0.25,0]];rounded=1;absoluteArcSize=1;arcSize=2;html=1;strokeColor=none;gradientColor=none;shadow=0;dashed=0;fontSize=12;fontColor=#9E9E9E;align=left;verticalAlign=top;spacing=10;spacingTop=-4;fillColor=#FFF3E0;" vertex="1" parent="d7iimS9ClQlRTDr_-M0m-11">
          <mxGeometry width="230" height="120" relative="1" as="geometry">
            <mxPoint x="10" y="50" as="offset" />
          </mxGeometry>
        </mxCell>
        <mxCell id="d7iimS9ClQlRTDr_-M0m-13" value="SubNetwork" style="sketch=0;points=[[0,0,0],[0.25,0,0],[0.5,0,0],[0.75,0,0],[1,0,0],[1,0.25,0],[1,0.5,0],[1,0.75,0],[1,1,0],[0.75,1,0],[0.5,1,0],[0.25,1,0],[0,1,0],[0,0.75,0],[0,0.5,0],[0,0.25,0]];rounded=1;absoluteArcSize=1;arcSize=2;html=1;strokeColor=none;gradientColor=none;shadow=0;dashed=0;fontSize=12;fontColor=#9E9E9E;align=left;verticalAlign=top;spacing=10;spacingTop=-4;fillColor=#EDE7F6;" vertex="1" parent="d7iimS9ClQlRTDr_-M0m-12">
          <mxGeometry width="210" height="60" relative="1" as="geometry">
            <mxPoint x="10" y="50" as="offset" />
          </mxGeometry>
        </mxCell>
        <mxCell id="d7iimS9ClQlRTDr_-M0m-14" value="Kubernetes cluster" style="sketch=0;points=[[0,0,0],[0.25,0,0],[0.5,0,0],[0.75,0,0],[1,0,0],[1,0.25,0],[1,0.5,0],[1,0.75,0],[1,1,0],[0.75,1,0],[0.5,1,0],[0.25,1,0],[0,1,0],[0,0.75,0],[0,0.5,0],[0,0.25,0]];rounded=1;absoluteArcSize=1;arcSize=2;html=1;strokeColor=none;gradientColor=none;shadow=0;dashed=0;fontSize=12;fontColor=#9E9E9E;align=left;verticalAlign=top;spacing=10;spacingTop=-4;fillColor=#FCE4EC;" vertex="1" parent="d7iimS9ClQlRTDr_-M0m-10">
          <mxGeometry width="250" height="120" relative="1" as="geometry">
            <mxPoint x="10" y="240" as="offset" />
          </mxGeometry>
        </mxCell>
        <mxCell id="d7iimS9ClQlRTDr_-M0m-15" value="pod" style="sketch=0;points=[[0,0,0],[0.25,0,0],[0.5,0,0],[0.75,0,0],[1,0,0],[1,0.25,0],[1,0.5,0],[1,0.75,0],[1,1,0],[0.75,1,0],[0.5,1,0],[0.25,1,0],[0,1,0],[0,0.75,0],[0,0.5,0],[0,0.25,0]];rounded=1;absoluteArcSize=1;arcSize=2;html=1;strokeColor=none;gradientColor=none;shadow=0;dashed=0;fontSize=12;fontColor=#9E9E9E;align=left;verticalAlign=top;spacing=10;spacingTop=-4;fillColor=#E8F5E9;" vertex="1" parent="d7iimS9ClQlRTDr_-M0m-14">
          <mxGeometry width="210" height="60" relative="1" as="geometry">
            <mxPoint x="10" y="50" as="offset" />
          </mxGeometry>
        </mxCell>
        <mxCell id="d7iimS9ClQlRTDr_-M0m-16" value="Account" style="sketch=0;points=[[0,0,0],[0.25,0,0],[0.5,0,0],[0.75,0,0],[1,0,0],[1,0.25,0],[1,0.5,0],[1,0.75,0],[1,1,0],[0.75,1,0],[0.5,1,0],[0.25,1,0],[0,1,0],[0,0.75,0],[0,0.5,0],[0,0.25,0]];rounded=1;absoluteArcSize=1;arcSize=2;html=1;strokeColor=none;gradientColor=none;shadow=0;dashed=0;fontSize=12;fontColor=#9E9E9E;align=left;verticalAlign=top;spacing=10;spacingTop=-4;fillColor=#E8EAF6;" vertex="1" parent="d7iimS9ClQlRTDr_-M0m-10">
          <mxGeometry width="250" height="60" relative="1" as="geometry">
            <mxPoint x="10" y="370" as="offset" />
          </mxGeometry>
        </mxCell>
        <mxCell id="d7iimS9ClQlRTDr_-M0m-17" value="Region" style="sketch=0;points=[[0,0,0],[0.25,0,0],[0.5,0,0],[0.75,0,0],[1,0,0],[1,0.25,0],[1,0.5,0],[1,0.75,0],[1,1,0],[0.75,1,0],[0.5,1,0],[0.25,1,0],[0,1,0],[0,0.75,0],[0,0.5,0],[0,0.25,0]];rounded=1;absoluteArcSize=1;arcSize=2;html=1;strokeColor=none;gradientColor=none;shadow=0;dashed=0;fontSize=12;fontColor=#9E9E9E;align=left;verticalAlign=top;spacing=10;spacingTop=-4;fillColor=#ECEFF1;" vertex="1" parent="d7iimS9ClQlRTDr_-M0m-10">
          <mxGeometry width="250" height="310" relative="1" as="geometry">
            <mxPoint x="270" y="50" as="offset" />
          </mxGeometry>
        </mxCell>
        <mxCell id="d7iimS9ClQlRTDr_-M0m-18" value="Zone" style="sketch=0;points=[[0,0,0],[0.25,0,0],[0.5,0,0],[0.75,0,0],[1,0,0],[1,0.25,0],[1,0.5,0],[1,0.75,0],[1,1,0],[0.75,1,0],[0.5,1,0],[0.25,1,0],[0,1,0],[0,0.75,0],[0,0.5,0],[0,0.25,0]];rounded=1;absoluteArcSize=1;arcSize=2;html=1;strokeColor=none;gradientColor=none;shadow=0;dashed=0;fontSize=12;fontColor=#9E9E9E;align=left;verticalAlign=top;spacing=10;spacingTop=-4;fillColor=#FFF3E0;" vertex="1" parent="d7iimS9ClQlRTDr_-M0m-17">
          <mxGeometry width="230" height="250" relative="1" as="geometry">
            <mxPoint x="10" y="50" as="offset" />
          </mxGeometry>
        </mxCell>
        <mxCell id="d7iimS9ClQlRTDr_-M0m-19" value="Firewall" style="sketch=0;points=[[0,0,0],[0.25,0,0],[0.5,0,0],[0.75,0,0],[1,0,0],[1,0.25,0],[1,0.5,0],[1,0.75,0],[1,1,0],[0.75,1,0],[0.5,1,0],[0.25,1,0],[0,1,0],[0,0.75,0],[0,0.5,0],[0,0.25,0]];rounded=1;absoluteArcSize=1;arcSize=2;html=1;strokeColor=none;gradientColor=none;shadow=0;dashed=0;fontSize=12;fontColor=#9E9E9E;align=left;verticalAlign=top;spacing=10;spacingTop=-4;fillColor=#FBE9E7;" vertex="1" parent="d7iimS9ClQlRTDr_-M0m-18">
          <mxGeometry width="210" height="190" relative="1" as="geometry">
            <mxPoint x="10" y="50" as="offset" />
          </mxGeometry>
        </mxCell>
        <mxCell id="d7iimS9ClQlRTDr_-M0m-20" value="Instance Group" style="sketch=0;points=[[0,0,0],[0.25,0,0],[0.5,0,0],[0.75,0,0],[1,0,0],[1,0.25,0],[1,0.5,0],[1,0.75,0],[1,1,0],[0.75,1,0],[0.5,1,0],[0.25,1,0],[0,1,0],[0,0.75,0],[0,0.5,0],[0,0.25,0]];rounded=1;absoluteArcSize=1;arcSize=2;html=1;strokeColor=none;gradientColor=none;shadow=0;dashed=0;fontSize=12;fontColor=#9E9E9E;align=left;verticalAlign=top;spacing=10;spacingTop=-4;fillColor=#F9FBE7;" vertex="1" parent="d7iimS9ClQlRTDr_-M0m-19">
          <mxGeometry width="190" height="60" relative="1" as="geometry">
            <mxPoint x="10" y="50" as="offset" />
          </mxGeometry>
        </mxCell>
        <mxCell id="d7iimS9ClQlRTDr_-M0m-21" value="Replica Pool" style="sketch=0;points=[[0,0,0],[0.25,0,0],[0.5,0,0],[0.75,0,0],[1,0,0],[1,0.25,0],[1,0.5,0],[1,0.75,0],[1,1,0],[0.75,1,0],[0.5,1,0],[0.25,1,0],[0,1,0],[0,0.75,0],[0,0.5,0],[0,0.25,0]];rounded=1;absoluteArcSize=1;arcSize=2;html=1;strokeColor=none;gradientColor=none;shadow=0;dashed=0;fontSize=12;fontColor=#9E9E9E;align=left;verticalAlign=top;spacing=10;spacingTop=-4;fillColor=#E0F7FA;" vertex="1" parent="d7iimS9ClQlRTDr_-M0m-19">
          <mxGeometry width="190" height="60" relative="1" as="geometry">
            <mxPoint x="10" y="120" as="offset" />
          </mxGeometry>
        </mxCell>
        <mxCell id="d7iimS9ClQlRTDr_-M0m-22" value="Optional Component" style="rounded=1;absoluteArcSize=1;arcSize=2;html=1;strokeColor=none;gradientColor=none;shadow=0;dashed=1;strokeColor=#4284F3;fontSize=12;fontColor=#9E9E9E;align=left;verticalAlign=top;spacing=10;spacingTop=-4;fillColor=none;dashPattern=1 2;strokeWidth=2;" vertex="1" parent="d7iimS9ClQlRTDr_-M0m-10">
          <mxGeometry width="250" height="60" relative="1" as="geometry">
            <mxPoint x="270" y="370" as="offset" />
          </mxGeometry>
        </mxCell>
        <mxCell id="d7iimS9ClQlRTDr_-M0m-24" value="" style="edgeStyle=orthogonalEdgeStyle;fontSize=12;html=1;endArrow=blockThin;endFill=1;rounded=0;strokeWidth=2;endSize=4;startSize=4;dashed=0;strokeColor=#4284F3;" edge="1" parent="1">
          <mxGeometry width="100" relative="1" as="geometry">
            <mxPoint x="314" y="543.41" as="sourcePoint" />
            <mxPoint x="414" y="543.41" as="targetPoint" />
          </mxGeometry>
        </mxCell>
        <mxCell id="d7iimS9ClQlRTDr_-M0m-25" value="" style="edgeStyle=orthogonalEdgeStyle;fontSize=12;html=1;endArrow=blockThin;endFill=1;rounded=0;strokeWidth=2;endSize=4;startSize=4;strokeColor=#34A853;dashed=0;" edge="1" parent="1">
          <mxGeometry width="100" relative="1" as="geometry">
            <mxPoint x="380" y="380" as="sourcePoint" />
            <mxPoint x="480" y="380" as="targetPoint" />
          </mxGeometry>
        </mxCell>
        <mxCell id="d7iimS9ClQlRTDr_-M0m-26" value="" style="edgeStyle=orthogonalEdgeStyle;fontSize=12;html=1;endArrow=blockThin;endFill=1;rounded=0;strokeWidth=2;endSize=4;startSize=4;strokeColor=#EA4335;dashed=0;" edge="1" parent="1">
          <mxGeometry width="100" relative="1" as="geometry">
            <mxPoint x="360" y="400" as="sourcePoint" />
            <mxPoint x="460" y="400" as="targetPoint" />
          </mxGeometry>
        </mxCell>
        <mxCell id="d7iimS9ClQlRTDr_-M0m-29" value="&lt;b&gt;User&lt;/b&gt;/&lt;b&gt;Admin &lt;/b&gt;role" style="sketch=0;aspect=fixed;html=1;points=[];align=center;image;fontSize=12;image=img/lib/mscae/Person.svg;" vertex="1" parent="1">
          <mxGeometry x="-453.5" y="410" width="37" height="50" as="geometry" />
        </mxCell>
        <mxCell id="d7iimS9ClQlRTDr_-M0m-39" value="" style="edgeStyle=orthogonalEdgeStyle;fontSize=12;html=1;endArrow=blockThin;endFill=1;rounded=0;strokeWidth=2;endSize=4;startSize=4;dashed=1;dashPattern=1 3;strokeColor=#4284F3;" edge="1" parent="1">
          <mxGeometry width="100" relative="1" as="geometry">
            <mxPoint x="160" y="400" as="sourcePoint" />
            <mxPoint x="260" y="400" as="targetPoint" />
          </mxGeometry>
        </mxCell>
        <mxCell id="d7iimS9ClQlRTDr_-M0m-40" value="" style="edgeStyle=orthogonalEdgeStyle;fontSize=12;html=1;endArrow=blockThin;endFill=1;rounded=0;strokeWidth=2;endSize=4;startSize=4;dashed=1;dashPattern=1 3;strokeColor=#9E9E9E;" edge="1" parent="1">
          <mxGeometry width="100" relative="1" as="geometry">
            <mxPoint x="160" y="370" as="sourcePoint" />
            <mxPoint x="260" y="370" as="targetPoint" />
          </mxGeometry>
        </mxCell>
        <mxCell id="d7iimS9ClQlRTDr_-M0m-41" value="" style="verticalLabelPosition=bottom;html=1;verticalAlign=top;align=center;strokeColor=none;fillColor=#00BEF2;shape=mxgraph.azure.laptop;pointerEvents=1;" vertex="1" parent="1">
          <mxGeometry x="-470" y="488" width="70" height="41" as="geometry" />
        </mxCell>
        <mxCell id="d7iimS9ClQlRTDr_-M0m-42" value="App VPC" style="points=[[0,0],[0.25,0],[0.5,0],[0.75,0],[1,0],[1,0.25],[1,0.5],[1,0.75],[1,1],[0.75,1],[0.5,1],[0.25,1],[0,1],[0,0.75],[0,0.5],[0,0.25]];outlineConnect=0;gradientColor=none;html=1;whiteSpace=wrap;fontSize=12;fontStyle=0;container=1;pointerEvents=0;collapsible=0;recursiveResize=0;shape=mxgraph.aws4.group;grIcon=mxgraph.aws4.group_vpc;strokeColor=#248814;fillColor=none;verticalAlign=top;align=left;spacingLeft=30;fontColor=#AAB7B8;dashed=0;" vertex="1" parent="1">
          <mxGeometry x="-570" y="574.5" width="270" height="290" as="geometry" />
        </mxCell>
        <mxCell id="d7iimS9ClQlRTDr_-M0m-50" value="Private subnet" style="points=[[0,0],[0.25,0],[0.5,0],[0.75,0],[1,0],[1,0.25],[1,0.5],[1,0.75],[1,1],[0.75,1],[0.5,1],[0.25,1],[0,1],[0,0.75],[0,0.5],[0,0.25]];outlineConnect=0;gradientColor=none;html=1;whiteSpace=wrap;fontSize=12;fontStyle=0;container=1;pointerEvents=0;collapsible=0;recursiveResize=0;shape=mxgraph.aws4.group;grIcon=mxgraph.aws4.group_security_group;grStroke=0;strokeColor=#147EBA;fillColor=#E6F2F8;verticalAlign=top;align=left;spacingLeft=30;fontColor=#147EBA;dashed=0;" vertex="1" parent="d7iimS9ClQlRTDr_-M0m-42">
          <mxGeometry y="60" width="270" height="230" as="geometry" />
        </mxCell>
        <mxCell id="d7iimS9ClQlRTDr_-M0m-35" value="" style="sketch=0;points=[[0,0,0],[0.25,0,0],[0.5,0,0],[0.75,0,0],[1,0,0],[0,1,0],[0.25,1,0],[0.5,1,0],[0.75,1,0],[1,1,0],[0,0.25,0],[0,0.5,0],[0,0.75,0],[1,0.25,0],[1,0.5,0],[1,0.75,0]];outlineConnect=0;fontColor=#232F3E;gradientColor=#F78E04;gradientDirection=north;fillColor=#D05C17;strokeColor=#ffffff;dashed=0;verticalLabelPosition=bottom;verticalAlign=top;align=center;html=1;fontSize=12;fontStyle=0;aspect=fixed;shape=mxgraph.aws4.resourceIcon;resIcon=mxgraph.aws4.ecs;" vertex="1" parent="d7iimS9ClQlRTDr_-M0m-50">
          <mxGeometry x="200" y="160" width="54" height="54" as="geometry" />
        </mxCell>
        <mxCell id="d7iimS9ClQlRTDr_-M0m-55" value="" style="strokeColor=#dddddd;shadow=1;strokeWidth=1;rounded=1;absoluteArcSize=1;arcSize=2;" vertex="1" parent="d7iimS9ClQlRTDr_-M0m-50">
          <mxGeometry x="50" y="60" width="170" height="60" as="geometry" />
        </mxCell>
        <mxCell id="d7iimS9ClQlRTDr_-M0m-56" value="&lt;font color=&quot;#000000&quot;&gt;MPM Verification&lt;/font&gt;&lt;br&gt;App Engine" style="editableCssRules=.*;html=1;fontColor=#999999;shape=image;verticalLabelPosition=middle;labelBackgroundColor=#ffffff;verticalAlign=middle;labelPosition=right;align=left;spacingLeft=20;part=1;points=[];imageAspect=0;image=data:image/svg+xml,PHN2ZyB4bWxucz0iaHR0cDovL3d3dy53My5vcmcvMjAwMC9zdmciIHhtbG5zOnY9Imh0dHBzOi8vdmVjdGEuaW8vbmFubyIgd2lkdGg9IjIwIiBoZWlnaHQ9IjE2LjAyMDAwMDQ1Nzc2MzY3MiIgZmlsbC1ydWxlPSJldmVub2RkIiB2aWV3Qm94PSI4Ljk0MDY5NjcxNjMwODU5NGUtOCAwIDIwIDE2LjAyMDAwMDQ1Nzc2MzY3MiI+JiN4YTsJPHN0eWxlIHR5cGU9InRleHQvY3NzIj4mI3hhOwkuc3Qwe2ZpbGw6IzQyODVmNDt9JiN4YTsJLnN0MXtmaWxsOiNhZWNiZmE7fSYjeGE7CS5zdDJ7ZmlsbDojNjY5ZGY2O30mI3hhOwk8L3N0eWxlPiYjeGE7CTxwYXRoIGNsYXNzPSJzdDAiIGQ9Ik0xMi4zIDcuMjZsLTEuMjIgMS4yMkExLjcxIDEuNzEgMCAwIDEgMTAgMTEuNDlhMS43NCAxLjc0IDAgMCAxLTEuMzMtLjY0bC0xLjIyIDEuMjJhMy40MyAzLjQzIDAgMCAwIDUuOTg0LTEuMzgxQTMuNDMgMy40MyAwIDAgMCAxMi4zIDcuMjZ6Ii8+JiN4YTsJPHBhdGggY2xhc3M9InN0MSIgZD0iTTEwIDMuNTJhNi4yNSA2LjI1IDAgMCAwIDAgMTIuNSA2LjI1IDYuMjUgMCAwIDAgMC0xMi41bTAgMTAuNzRhNC40NSA0LjQ1IDAgMCAxLTMuMTU3LTcuNTk3QTQuNDUgNC40NSAwIDAgMSAxNC40NCA5LjgyIDQuNDQgNC40NCAwIDAgMSAxMCAxNC4yNiIvPiYjeGE7CTxwYXRoIGNsYXNzPSJzdDIiIGQ9Ik0xOS42MiA5LjE2bC0yLjU2LS44MWE3LjEgNy4xIDAgMCAxIC4xNyAxLjUzIDcuNjIgNy42MiAwIDAgMS0uMDggMS4wOGgyLjQ3YS40NC40NCAwIDAgMCAuMzgtLjQydi0xYS40NC40NCAwIDAgMC0uMzgtLjQyTTEwIDIuNzhhNy40OCA3LjQ4IDAgMCAxIDEuNS4xNUwxMC41OC4zOGMtLjA3LS4yMi0uMjEtLjM4LS40Mi0uMzhoLS4zOGEuNDUuNDUgMCAwIDAtLjQyLjM4bC0uOCAyLjU0QTcuNjQgNy42NCAwIDAgMSAxMCAyLjc4bS03LjIzIDcuMWE3LjEgNy4xIDAgMCAxIC4xNy0xLjUzbC0yLjU2LjgxYS40NC40NCAwIDAgMC0uMzguNDJ2MWEuNDQuNDQgMCAwIDAgLjM4LjQyaDIuNDdhNy42MiA3LjYyIDAgMCAxLS4wOC0xLjA4Ii8+JiN4YTsJPHBhdGggY2xhc3M9InN0MSIgZD0iTTEwIDcuMjZhMi41IDIuNSAwIDEgMCAwIDUgMi41IDIuNSAwIDEgMCAwLTV6bTAgMy43NWExLjI1IDEuMjUgMCAxIDEgMC0yLjUgMS4yNSAxLjI1IDAgMCAxIDEuMjUgMS4yNUExLjI1IDEuMjUgMCAwIDEgMTAgMTEuMDJ6Ii8+JiN4YTs8L3N2Zz4=;" vertex="1" parent="d7iimS9ClQlRTDr_-M0m-55">
          <mxGeometry width="30" height="24" relative="1" as="geometry">
            <mxPoint x="15" y="18" as="offset" />
          </mxGeometry>
        </mxCell>
        <mxCell id="d7iimS9ClQlRTDr_-M0m-54" value="Data VPC" style="points=[[0,0],[0.25,0],[0.5,0],[0.75,0],[1,0],[1,0.25],[1,0.5],[1,0.75],[1,1],[0.75,1],[0.5,1],[0.25,1],[0,1],[0,0.75],[0,0.5],[0,0.25]];outlineConnect=0;gradientColor=none;html=1;whiteSpace=wrap;fontSize=12;fontStyle=0;container=1;pointerEvents=0;collapsible=0;recursiveResize=0;shape=mxgraph.aws4.group;grIcon=mxgraph.aws4.group_vpc;strokeColor=#248814;fillColor=none;verticalAlign=top;align=left;spacingLeft=30;fontColor=#AAB7B8;dashed=0;" vertex="1" parent="1">
          <mxGeometry x="-570" y="884.5" width="270" height="160" as="geometry" />
        </mxCell>
        <mxCell id="d7iimS9ClQlRTDr_-M0m-53" value="" style="outlineConnect=0;dashed=0;verticalLabelPosition=bottom;verticalAlign=top;align=center;html=1;shape=mxgraph.aws3.rds;fillColor=#2E73B8;gradientColor=none;" vertex="1" parent="d7iimS9ClQlRTDr_-M0m-54">
          <mxGeometry x="99" y="30" width="72" height="81" as="geometry" />
        </mxCell>
        <mxCell id="d7iimS9ClQlRTDr_-M0m-58" value="&lt;b&gt;TimescaleDB&lt;/b&gt;" style="text;html=1;align=center;verticalAlign=middle;resizable=0;points=[];autosize=1;strokeColor=none;fillColor=none;" vertex="1" parent="d7iimS9ClQlRTDr_-M0m-54">
          <mxGeometry x="85" y="120" width="100" height="30" as="geometry" />
        </mxCell>
        <mxCell id="d7iimS9ClQlRTDr_-M0m-57" style="edgeStyle=orthogonalEdgeStyle;rounded=0;orthogonalLoop=1;jettySize=auto;html=1;exitX=0.5;exitY=1;exitDx=0;exitDy=0;strokeWidth=2;strokeColor=#999999;" edge="1" parent="1" source="d7iimS9ClQlRTDr_-M0m-55" target="d7iimS9ClQlRTDr_-M0m-53">
          <mxGeometry relative="1" as="geometry">
            <Array as="points" />
          </mxGeometry>
        </mxCell>
        <mxCell id="d7iimS9ClQlRTDr_-M0m-59" style="edgeStyle=orthogonalEdgeStyle;rounded=0;orthogonalLoop=1;jettySize=auto;html=1;strokeColor=#7EA6E0;strokeWidth=2;" edge="1" parent="1" source="d7iimS9ClQlRTDr_-M0m-41">
          <mxGeometry relative="1" as="geometry">
            <mxPoint x="-437" y="694.5" as="targetPoint" />
            <Array as="points">
              <mxPoint x="-437" y="574.5" />
              <mxPoint x="-437" y="574.5" />
            </Array>
          </mxGeometry>
        </mxCell>
        <mxCell id="d7iimS9ClQlRTDr_-M0m-60" value="" style="shape=mxgraph.gcp2.doubleRect;strokeColor=#dddddd;shadow=1;strokeWidth=1;rounded=1;absoluteArcSize=1;arcSize=2;" vertex="1" parent="1">
          <mxGeometry x="-150" y="690.5" width="200" height="68" as="geometry" />
        </mxCell>
        <mxCell id="d7iimS9ClQlRTDr_-M0m-61" value="&lt;font color=&quot;#000000&quot;&gt;Report-Service-TFMC&lt;/font&gt;&lt;br&gt;service" style="editableCssRules=.*;html=1;fontColor=#999999;shape=image;verticalLabelPosition=middle;labelBackgroundColor=#ffffff;verticalAlign=middle;labelPosition=right;align=left;spacingLeft=20;part=1;points=[];imageAspect=0;image=data:image/svg+xml,PHN2ZyB4bWxucz0iaHR0cDovL3d3dy53My5vcmcvMjAwMC9zdmciIHhtbG5zOnY9Imh0dHBzOi8vdmVjdGEuaW8vbmFubyIgd2lkdGg9IjIwIiBoZWlnaHQ9IjE2LjAyMDAwMDQ1Nzc2MzY3MiIgZmlsbC1ydWxlPSJldmVub2RkIiB2aWV3Qm94PSI4Ljk0MDY5NjcxNjMwODU5NGUtOCAwIDIwIDE2LjAyMDAwMDQ1Nzc2MzY3MiI+JiN4YTsJPHN0eWxlIHR5cGU9InRleHQvY3NzIj4mI3hhOwkuc3Qwe2ZpbGw6IzQyODVmNDt9JiN4YTsJLnN0MXtmaWxsOiNhZWNiZmE7fSYjeGE7CS5zdDJ7ZmlsbDojNjY5ZGY2O30mI3hhOwk8L3N0eWxlPiYjeGE7CTxwYXRoIGNsYXNzPSJzdDAiIGQ9Ik0xMi4zIDcuMjZsLTEuMjIgMS4yMkExLjcxIDEuNzEgMCAwIDEgMTAgMTEuNDlhMS43NCAxLjc0IDAgMCAxLTEuMzMtLjY0bC0xLjIyIDEuMjJhMy40MyAzLjQzIDAgMCAwIDUuOTg0LTEuMzgxQTMuNDMgMy40MyAwIDAgMCAxMi4zIDcuMjZ6Ii8+JiN4YTsJPHBhdGggY2xhc3M9InN0MSIgZD0iTTEwIDMuNTJhNi4yNSA2LjI1IDAgMCAwIDAgMTIuNSA2LjI1IDYuMjUgMCAwIDAgMC0xMi41bTAgMTAuNzRhNC40NSA0LjQ1IDAgMCAxLTMuMTU3LTcuNTk3QTQuNDUgNC40NSAwIDAgMSAxNC40NCA5LjgyIDQuNDQgNC40NCAwIDAgMSAxMCAxNC4yNiIvPiYjeGE7CTxwYXRoIGNsYXNzPSJzdDIiIGQ9Ik0xOS42MiA5LjE2bC0yLjU2LS44MWE3LjEgNy4xIDAgMCAxIC4xNyAxLjUzIDcuNjIgNy42MiAwIDAgMS0uMDggMS4wOGgyLjQ3YS40NC40NCAwIDAgMCAuMzgtLjQydi0xYS40NC40NCAwIDAgMC0uMzgtLjQyTTEwIDIuNzhhNy40OCA3LjQ4IDAgMCAxIDEuNS4xNUwxMC41OC4zOGMtLjA3LS4yMi0uMjEtLjM4LS40Mi0uMzhoLS4zOGEuNDUuNDUgMCAwIDAtLjQyLjM4bC0uOCAyLjU0QTcuNjQgNy42NCAwIDAgMSAxMCAyLjc4bS03LjIzIDcuMWE3LjEgNy4xIDAgMCAxIC4xNy0xLjUzbC0yLjU2LjgxYS40NC40NCAwIDAgMC0uMzguNDJ2MWEuNDQuNDQgMCAwIDAgLjM4LjQyaDIuNDdhNy42MiA3LjYyIDAgMCAxLS4wOC0xLjA4Ii8+JiN4YTsJPHBhdGggY2xhc3M9InN0MSIgZD0iTTEwIDcuMjZhMi41IDIuNSAwIDEgMCAwIDUgMi41IDIuNSAwIDEgMCAwLTV6bTAgMy43NWExLjI1IDEuMjUgMCAxIDEgMC0yLjUgMS4yNSAxLjI1IDAgMCAxIDEuMjUgMS4yNUExLjI1IDEuMjUgMCAwIDEgMTAgMTEuMDJ6Ii8+JiN4YTs8L3N2Zz4=;" vertex="1" parent="d7iimS9ClQlRTDr_-M0m-60">
          <mxGeometry width="30" height="24" relative="1" as="geometry">
            <mxPoint x="15" y="18" as="offset" />
          </mxGeometry>
        </mxCell>
        <mxCell id="d7iimS9ClQlRTDr_-M0m-62" style="edgeStyle=orthogonalEdgeStyle;rounded=0;orthogonalLoop=1;jettySize=auto;html=1;exitX=1;exitY=0.5;exitDx=0;exitDy=0;entryX=0;entryY=0.5;entryDx=0;entryDy=0;entryPerimeter=0;strokeColor=#7EA6E0;strokeWidth=2;" edge="1" parent="1" source="d7iimS9ClQlRTDr_-M0m-55" target="d7iimS9ClQlRTDr_-M0m-1">
          <mxGeometry relative="1" as="geometry" />
        </mxCell>
        <mxCell id="d7iimS9ClQlRTDr_-M0m-64" style="edgeStyle=orthogonalEdgeStyle;rounded=0;orthogonalLoop=1;jettySize=auto;html=1;exitX=0;exitY=0.25;exitDx=0;exitDy=0;strokeColor=#7EA6E0;strokeWidth=2;startArrow=none;startFill=0;" edge="1" parent="1" source="d7iimS9ClQlRTDr_-M0m-55">
          <mxGeometry relative="1" as="geometry">
            <mxPoint x="-680" y="680" as="targetPoint" />
            <Array as="points">
              <mxPoint x="-680" y="710" />
              <mxPoint x="-680" y="680" />
            </Array>
          </mxGeometry>
        </mxCell>
        <mxCell id="d7iimS9ClQlRTDr_-M0m-65" style="edgeStyle=orthogonalEdgeStyle;rounded=0;orthogonalLoop=1;jettySize=auto;html=1;exitX=0;exitY=0.75;exitDx=0;exitDy=0;strokeColor=#7EA6E0;strokeWidth=2;startArrow=none;startFill=0;" edge="1" parent="1" source="d7iimS9ClQlRTDr_-M0m-55">
          <mxGeometry relative="1" as="geometry">
            <mxPoint x="-680" y="770" as="targetPoint" />
            <Array as="points">
              <mxPoint x="-680" y="740" />
              <mxPoint x="-680" y="760" />
            </Array>
          </mxGeometry>
        </mxCell>
        <mxCell id="d7iimS9ClQlRTDr_-M0m-66" value="" style="sketch=0;outlineConnect=0;fontColor=#232F3E;gradientColor=none;fillColor=#3F8624;strokeColor=none;dashed=0;verticalLabelPosition=bottom;verticalAlign=top;align=center;html=1;fontSize=12;fontStyle=0;aspect=fixed;pointerEvents=1;shape=mxgraph.aws4.bucket;" vertex="1" parent="1">
          <mxGeometry x="-704.04" y="780" width="48.08" height="50" as="geometry" />
        </mxCell>
        <mxCell id="d7iimS9ClQlRTDr_-M0m-67" value="" style="outlineConnect=0;dashed=0;verticalLabelPosition=bottom;verticalAlign=top;align=center;html=1;shape=mxgraph.aws3.dynamo_db;fillColor=#2E73B8;gradientColor=none;" vertex="1" parent="1">
          <mxGeometry x="-710" y="585" width="60" height="65" as="geometry" />
        </mxCell>
        <mxCell id="d7iimS9ClQlRTDr_-M0m-68" value="" style="shape=image;verticalLabelPosition=bottom;labelBackgroundColor=default;verticalAlign=top;aspect=fixed;imageAspect=0;image=data:image/png,iVBORw0KGgoAAAANSUhEUgAAALYAAACXCAYAAAC4AKGXAAAAAXNSR0IArs4c6QAAAARnQU1BAACxjwv8YQUAAAAJcEhZcwAAFxEAABcRAcom8z8AAC69SURBVHhe7Z0HfJPV2/ef932fvf7r+Q83igNRUVwoggMVRQRFERFEEEVBUFAZoiB7lL0KdLC6oOwyCi3Q3abNbprRJmmTpmnStE3a7KZN+b3XuZtigeKf/ZB6//z8PpXk5D537nzPda5zkvucf+DFixcvXrx48eLFi9cto//Dm/cN9k1Tx0r/L2/eN8EdmWO+bmo/YHtF/4/8j+R/CvmfefO+AW7ni7HGmGO+EParVvsB2mFmFf4r+d/I/x7yf/DmfYPM+GKsMeb+hcxAbwf8quFmL2qP0OyA/5KcnGwsLy8/Z71eXxmyiTfv6+x2tirbeZs+ffpAxmGIyY7R+7J1IdSs1fzntm3bKh0OB3jxutnKzMzE7Nmzvwyx2J6iXHHkZgXboWbdwH+T/xAbG2uqqKiAz+cLVceL142XyWRCWloaKGJPDrHYWVpyWWIF23Nqluf8gfzXdrDtdjtaWlpC1fLidePEMgTGHAN72rRpU0MsMiYZm1cENivECjOwWbT+T/L/kO/sCHZTU1Ooal68boyCwSDHWjvYU6dOnUYc/oX8X2TGZsd05O+qI9gsn2Gh/2/ke2NiYswdwT579mzoFHjxuv66EOwpU6Z8TxzeRv4dmUXt9nTkisBmL2JTLr8n306+Pzo6upoHm9fN0oVgT5o0aSZxeCeZpSOMzStKR1gBVpi9iL2YHeQu8oM82Lxupi4Ee+LEibOIw7vJfySzFPmqwWYvZgdhB3uIwLbwYPO6WeoE7B+Iw27kP5GvC9j3kHtERUVZebB53SxdCPaXX345mzjsCHbHL2uuGuyHebB53UxdAux7ydcFbHYQHmxeN12/AjabfubB5hWe4sHm1SXFg82rS4oHm1eXFA82ry6psADbT+VttlqYTFWorCSzv9z/mzibq6vhdDpDpXnxChOwjxw9jilff4vX3hiCV19/izwIrw58C6/Tv998ayiGj/gI8xcthsFohNfrDb3qBupsK5nvcW5lhQXYi5csx7PPv4zb7rwP997fEw/06IX7HngEd3V7AHfcfR/+dse9eKTX05gzdx5EYgmam5tDr7wBam1Cvb0BMn0tJHX+0IO8bjXd8mCzYjNm/YTHe/fB03364bvps7A8YiVm/zQXg4cOw0M9e+Ge+3qg+wOP4l6C/cc581BUJEZrK0XVG6EmB7IlWsxMKsY0QV3owctRK3z+ZviaWtDMB/sbrrAAeyaB3av3Mxj2/kjk5QtgsVpRWqbDrNlz8Eyf/uj99PP4ZNwEiuI98eQzL+CbaTMgkchCR7jO8tVhb0YJhm8SYvApa+jBv6+gz448sRk5SjsMntCDvG6YwgbsxwjsDz8aC51Ozz3e0NiI+QuWoG+/V/DW28OQln4aU6Z+RynLi3jsiWfw5Vdfo7y8git7zWoNUlrdDO6MA3YcyFZi5BYRhp6u4Z5u01kq00qZSgCtdNIXvrtgowmbkhXYdMoMob2T3oT1MC3NaG6hY1zmteHE8n3qDS4WO8ZZBJtbqMgVHK+LKKzAHvHRGJRRpGZiYM9bsAh9+r6Ml18dBEGRCHHxSQT/J5SDP4Zu3R/G1qhYqivAlb86tcLhcEGsNiMpT4/tRRacVhmxbL8E70WK8e4ZG1emxtYIia4GB4oqEJNRhphCMzKMHpQ3NiPYEoTD5sTx3BJ8uqkI4xI0WJFnQaq6DjWUk7hcXlSYHTgpq0JcthZbso04UFIPsdUHz69lU01+VJjqkaeqxu4iI+LFFsjqAvAGW9ESaIbN5sApiQlRWTrECS1I1zZAW++DsZKObfHC3UyNNXQoJnudA9LKRpTV+nADRyg3TWELtt3hwM/zF+PxJ5+jQeSDGP/5RHw87nP0f2Uguj/4KP56ezdMnjKNPmAb9yavRm5rDZJPlmDSNhGG7yjG58lqfL9bhBHr8tB3jQjvZ9ZTKRfyCvVYeUCB8YnFGJ9UgjHRQiqvxAZBDcrq3KgoMWJSZB4eXZyHXquFeD9OiW9T9NB4A9QDVSH5lBpT4hSYsIfg3yXF25tF+CHViDRTJ4NTFqFbWyARlmF2vBQfbhVhTLwcn1HdUSVOWBqoQemrEXVAiuExcny6uwSfJyqxMtuEwworjh+XY9RePQptfrhZw+FmeJpw4JgI36WUI66kEZ7L+2huaYUt2G6PBxsjt2LAa2/hjru6czMlD/V8gvw47r73Qdxxd3d8/Ml4bgqw+UrviufgacLJdCk+I3DGJmmRoHEgz0ADxyIN5icUEdhCDMtiYLdFzmx1LbL1DcgzupAtVuGTjQJMPUTRstQJl92FlFQRnl1TgDd3qbBVQpHW4IKDUg9rrR2iMhsyy+j49No8gnLhrkJMTlBgVnYtLuxvWuk1fmqsE9dkYcQuJX48U4XTOgdy9HUosQdQb7HhYKoCo9cJMT2/lo7pRF65A8oaN7TVdhQXyNF7mRCRcgdK3dTgWaN32TFpxRl8cbQShyu9CPJgX6SbBjY7calUhh274vHT3Pmc58xbhOlUls2W3Hn3/fho9FhUMLCvdPqPfdhuSnWiczE2sRTrZI1t0Y095alFwikFhm2iHJtLRYJoofLsfFopF2+hnBaBGqyJF2Pi7lKsoCjKVCUvxuAoMb5INaGgrr0HoRyYey3l1ZRjnw2wu/d9KMwqwXQCe9xRM9xtBc+piRq0QaLGE7PzsFhQi2IX1cslFW0n2GKvRfzRYny0XojJWTbU+Vrp+Ox5qivgh7+uCsMWZOPrdDPSqv0I+v1orCjHoIUFWCmkxuG8ut7tVlPYgs3kpw+FrR3BFkVpcxVUag2WLl+JO+95ACNHjW2L2FcI9lkGaY0VEyNyMSWlAvtNHRb58dXjQGYJPqR04Z3Q4NFZ1whpWTV25OqxNUOPnfkafLq5CO/GlyJC2ciVMcoUHNgTjpuQVxdqJaSzPh9MVfVIKTRiw2ktEgsNWJAgwptb5RidaqZEp6Na4XI0QnBKjLsXyxFX5oL1grfWSo1DIC3Hit1CvBRRgOlHK5CoqIfMRrkzNTy0+LAyKgtjk/XYrXbB2UhjiEwx3thaitQKDxq7QrgmhTXYnYmBvnlLFAc2G0heLdjN1dWYsDQXUwnsw+bzwd5HYI8gsN89Uwd43DiQrsLXOyQYEa/GgmNlWJgix8AV+RhMYK9QtkVsg1SBtwjsz4+ZkFsbAptyZYVMh1X7pHif8uFpR6h8KmsUAry4RYaPTlbj/O9Rg2iwO5B1sgi3LVcgXuvmBqDnidIoV6MTijIzth4uwYRYMd6OFOGnVAPSqnx0PVshzZZh4s4SROZXQ1pRg21xBfjkhAWK+qYukYYwdTmw6+rqsXHjlmsCm64KWu31+HZDFiYcoDxZ1wGvgB0Hs5QYtUWM97LpvVRUYmqsEKMSNdhOEVRj9UBdbcYcGnBOoFRkWShiM7CHENiTUqsgqA+B7XFiyx4a/EVLMS3LCjm9tszqxMHjxZgcr8CYY51FbBdk2VLc91MRNlOjKW/q7Dq2IhBopkbuRXG5GauTKC2hweXUNCvYqMBnrsKPNPCcS+BvzNJgJjXSTaXUc3i7RhrCxIPdqQi8gAe79gkwMkaGqQRjaQNF7bN+VOuN1M2L8MJ6EYbn2+FV6jFuUxG+pi4/o54N9VpgoZz1m+givLNLg+UlbWDb1NQYqNz4ZB1200DR6fHBU+PAkm2FGJ+gxHJ5A5U6i2ZHPRIOSTE8iiJ2qoWGpmdRa7LhsNCK9DInDI0+1GvL8eKcDIzeX4EkGtTW+ShXDvhQQ8+56LhOtw+NzvbVtjw4nSHD5O0SjDlsQhW77AE3ko7J8N02AQavp/OMUUNFgwhXVwnXJB7sS+lsECZ9BRbGCTF0jQAjkpRYll6KjUdlGLUhH/3WijAsy46gzYKluwjOHTKM3VeGVRlabEiR4IPV+RgaT/l+KBUJ1FUjIq4IH0YW4s1YKWYe1aCo0onko3J8GyfGO9sUWH66HJvSlPghpgADN1M9lIqwoaEsU4YPVgnxTQrl540tCPpciNpbhLdW5mHMdjm+S9Fg4XEV1gurUWqsphzbgE302LKMCqxMU+GL2CKMjFNiKzWetqm8IEolWvywNR895uVhSEo1AvR4F+I6vMD+8DLArq+3Y9OmrdcONikYCKBEY0b8mTLMOKTBvBOUloiqsLvAhKQCC3bpKUUJNtGA1YyYUzr8RDnyvJN67JGYsSe/EslKO3JtocgZDEBNA8ytZ3SYdUSLn9MNKGkIotJch0MF5VhCr517XItNAjMOFZqwU0RRWueieN0Kk8aIaDruflUjKvzsurWi1lKLlDw9Vp4opXo13GvjSx0op16gUGFG7Emqg56bSw1oQboRB0sbUUWpRvtV99c7cbSwEuuzTNhv6Ho/5gozsD+BVvvrYLPjR26+PmAzBfwBWO0eqCwuKKxumF1NcLgCsHuCqPW15aRNvgAMVhdKql0otrhhddPzrAw9z74JbBc7lrHeA00N5eE2L3X9bR+A1e5GKR1fXuWCzkGvo9fXelrgDrQdP+D1odrhg6MpiED74eh1jS4fl5MrqF7u3AhcP72mjnJrHZ2PwtwAWZUTmno/PGxKMfRSTvT6Wpcftd4WOFi47mIKG7DZj6DeGTYCqaknoVJpUFKiusgqlRp5eQWYNXsu7rhOYPMKT4UH2D/MweO9n8UTT/XBqDGfYuLkqfhy4pSLPPGrbzD20wl4vl/bb7dHjuLB/q0qLMDevCUar742iPs28Z77HuJuNrj3/ofRrXuPi8yev/2u+3A7gf3tdzNRbbFyb5LXb0u3PNhMbMC4JSoWCxYtxfyFS7Dg7/jnBQuxYuUaZGbmwOk8fyaY129DYQE2O0l2L6PL5Sa7Qn9/zS54PB5KQVpu3J00vG5phQXYvHhdqXiweXVJ8WDz6pLiwebVJRUWYLOyvHkzX67CAmy2xJnP7+f9Gze7xe9yubmlwWZl2HRdoLkZTYEA79+4GayXuzQFn2Pz6pLiwebVJcWDzatLigebV5cUDzavLikebF5dUjzYvLqkwgLshoYGlGm1kEjlZBkkMvrLLJFDSo/J5MWoqraESvPiFSZgnziZhhkzZ+Oddz8IeXjb32Ej8O77H2L0mPFYsGg5d8+j282vqs4rTMCev2Axnuj9HP74p9vQvXsP9OzZCw88+Ai398wf/3In/nzb3dztYpO/+RY5OflwOi9cyvFWF7sWQfj8TWi6iXexsYXqg81s+5DQovZdSLc82KzcjJk/otcTz+LpZ/tjzs8LsGVLFJavXI2hwz7Aw4/25jZZ6vHIE+h2/8P4+pvvcOrUmfCK3K3NCHgbcEZSiVyLH803aeUan9uNqvJqHCu2opGqvOheo7PNMFU3orLGA0NDeN0QHQZg/7L8wnvDP+L2lmG3fpmqqjD7p/l45rn+3B3sbJH3Ho/0Rs/HnsJnE75C6on08Lk7vckFvb4C49fn45siOwyuK1zP+ypVpbdiT4oUb8aUQEdV+i8k21eH7UdLsPyIFtFyR+jB8FDYgM0tmDN6LAFQzj3uomizYOFSPN/vFQx4fRAyMrMwfdaPHOg9ez3FrSmiVKq4N3jLy9+IYkUp3lyUiQ8ya1HiuDkNslxdhchEIR5eI4WSqvReCLarFntOqfDDET0SNeG1QWxYgd1x7T5uD5r5i9Hn+Zfw2sDByM7Nw7YdcRhJ8Hd/6DFui7w1azdw0f2qdTbInSf7j3XUHrcPDb4WeEIrNHUU+xViS3MTHI0eOLzNXLfezkmwNUgZdGeiHJcO3eprhEJVhqFLszE6pw7qC7v9YAsaXF44qH6H51LQByn98qHORefoaQKdZqcK0rWvpzIsl9eqzYjeI8YT6+VQdwY21VtP45UKOx03tOoVJ3o/zYEm7pyc/s4ravL50MjO1xu4aNzAXdMON1m3BALwev2wu5vQfOE5XKXCGuwFi5fhqWdfwAME8oejxuD9EaPQ/+XXuc1N2boiX3w5GRZrDYF1NVcriFKjDUJDPQrK6yFQWbA9oxSbs8qRLK9Fnskd2kajGeVURqgyIy5Hhw1paqzPMuKIpgHFtT4EKH+uMNQgVe8GW3avI5YWsw1nDC7IK20QKXR4rxOwfQ0uZMlM2JGjxcYMHbblm5Cub0R7tsJ2BXPbG5BZXIVYOr/1p8uwlcrslteh0v0LdM00QGyorsMRgQ5rTusQJ7Zi2wkNZkQXXhrsFh+EWnYNGlBU17YGoYfOR6a14kChHhupri35VciodMNGLamVbXESbEJZeS12F+gRmaFFZE4lkmS1KDvXCwWpt/WhrKIOeXTcYn0djosrsS1bh41ZFThY5kQjFW25RsDDFmy2HEPs9p3clB/be6YXt1LUc3j8yT54oMej3OI6H4/5tG0lqCvdg4bF2rM+bDsuwdgdYny0Q44f9ynx1V4lPooswBj695TD5RA1sFDkgkCsx6J9xfg0qQRf7lVjHMHSf50E6wiwLGMtsk5I8cJWFY6b/ahvj15nA9i1W4Cvj1Rgp8wMsVqP4cs7gE29RcDlwOk0OYasF2HqfjU+T1Jg6h4FBkWKsU/vA1vOurHOgawCNWbGFWPiPjUm7pZh9A4pPt8lx5KienDv3OeFTlWJ+dsL8PJ6IbdJ1OTdxfh2mxAjVuSi10YFSqngRWB7LYjYK8H4faVYXMxSkWbkninBT0lyDI+RYSK91y/3qDAvowrSGi99Jh7qBSowLVKAsfFKfELnO3aXDGNjxfjmRBW0riD8HPjVWB8nwqAYKZYfVmP2fhW+SJBjXGwRnl4jxyGjD7VN10Z22ILNxL6c2bErgdu5l5mt2Tftu5l4/c3BuCO0B81VLXHGba7kwfp9Bei7VoChSWVIL29EOXXJomIdftolxDubZZgrYmmOFyarHcUGO0qsXhgcTVDICcINBfjyoBaxxbUwidXovagAa+UN0HnpDVFX3uqrxZSIbEw+VolDuhooyvQYtuwXsIPeRihlpRi3NAsj91fgiLYRZVYHzgh1+GpNBgYlVSLfFoDD5YbRZENeGX2IVLehtgEpmSrM3l6IfjvKuYXjvZYa7Doqx+srC/Dp8SroHX7oqu3Yd1KBKRvy8ci6S4DtqsLPu9g633Q8iZ0eaMDSyBxM2KFERI4NBrsfFTVssXsXXF4fDAYLYnYX4umlQmyT2yGhx6VlVdh5WITey4qwWeWF3uWHUm3EvLXZ6LasEFGFVgir3NBQAEjLVOCx7zMwT+RAifNKg9H5CmuwubtrAs3c1J6bBpPMRmMlVq9ed22rrXJge7FxfwHe2lmC6Tm1cLWfbqsP2QVlmLVFiFcTKsA6aPYU28+R7Snp9DbB67dgVaIYn+8uQ4S8ngCxYtzKXIpaZmSYA2gNUB6sL8ObEYWIlFKDqHcQ2Nq2HDu3Hmrqi+urrNh3TILHlgmRagmilpuyaIXT0QhJpgw95oiwRdkIY2gqI0j5MKvbQ3m+rrQSW/dJ8OA6DVjM1shLMTdeiiE7tCho/CXh1dHgcXOSCI+vu0Qq4jZjYbwQHyRoMFfG9kJoxEICe1KSGksJbNaQzuXPPg/yJDqM35CLj0/Uwta+ZHGLF7YqI8b8nIlxqdXIs7qhUlVhMTWoF3fpoXM1t23B7fOjVm/GB/PS8U12LYR1V/iZXaCwBrszte1Bc43LCIfA3kBgD40rwQ/5deiwCw1UchNW7yzCs1Fq2Ai2mjon5HorkosqkJBvwFGpFl/HCDEysQwruK06vIiMzcfwXRrsUDrQ4HBBlCZB32gl0ihaNfpp8KgJDR5DYJeXVnHbeDy2vhhllMyztIMp4PGiXqXD87NzsYqiYrErQI+5IdJUY1euDockBuw4pcTkWCHuiyyFi7r+zFwFvk2QYczhKlg7BEJD6d8ZPLaDHa/GXC5iB5F/mo5FKcygDUJMP1qOY2UNqKaT81BPcSpTg3dX5WJ+MQ10z6133AJHgwOLV1LPc8CIjKpGAtuMpQT2wEQDqjyhgbWvicC2YtSidEzN4sG+SNdlR4OOYO9qA5tlEG1qhVrRBnafmFJY/G4knSwhkER4basc31DOOYWi9VMLczAwToMVqrZpMrZvzPhYOVbRYKuowoKdcQKMPF5NA0w/N93XPivyMYGtIbArNFWIIrB7baA0gU7fF6o/SJGtsdSAl+bkYSMbxFZYcSRNhrdXC/BBogpTk0swLqYIr20Q4G/ROvibfTiTrcCX8TJ8lFKF2qsAe3icCnMkbCsRujR+FyRyIzYfKsYoyp1fXlWAWZk1KNTYkJpZiuEMbIUfDeemN2iw2OjCivU5GHWwEhmmNrCXENivUY9nJLC5U+LAtmDkQgKbj9gX67qDTRF7Vi6Bfe5z8kJAee7sLUUYuLcS1ToDJkQVYeIBipZVlIbQB+qnQdfSeDE+TSzFckXbHjRemwkrEikv31eClSeU+C5KgG1lTTCxTUTPA9sODeWXNZSv7jkuRY8VYmTZCQ4urJ2l6OxBmaAEj/0sRKzYioSsMsyMEeD1ZCNsTa1w0Xst0xgRSYO+BzeUor61GQqJGrPipBiZoIfi3D7WZ1GuNnOpyDmw2XbVlFL5mlraZiU6AztkttuD1WJD4u4CPLdBjo3ZlUjOLsMXlKp8ltnADf5YudYWP+qs1Zi0KAvjjlUhx+KCksBmqQgP9v8S2JsOFmBgFNuUyAgpDQztlMMajCZsTZFh2EYxvhU2oF5Zjs82FuLrlHKkWpvgpA+oxlSOGduLMILtQRMCG0E/UihFmLSlAC+uLsCg7UooKb/hgG1yQqHW4r3FWXj7aBUKaygq19Yjq6gMA5bkYm5uLeR1PtTTQLFMV4mNu3LxZJQORzRsBzMCO7YIwwiaem8zGpwuFIq0mLOtEHdu0MBKPUy9qQrrkqUYsUWGpZJ61LibUGd3ITNPi+mRBehJOXYZnYezwYni8locktdw24jAR2AnUCrSDnZrC6x2L2qcfroWNHClSKzMkeONzVKsy69GerEJ6/YU4oWtapyudMPsbIK5uhansuR4fkEeFokdlGb5UKI0YeG6fAyIvwBsnQUj5qfha0pFin5bYH8Cna7tm8dL6brsQRMCe/PhIrxMg74XVgmxOEWDrXk6zNktJkBEmJBiBJsUaaZotDJRiFExEkw7qkO8QI8tByUYtZ6ifVIp1qjbvyBqhV5Vju+35uPhubkYkWrh5sG5QEy9QKm+Cj9H5qLnKhFWF9qgtbthMtUgMbkIA9aJ8c2RMqxP12BGHP17WT5WFLugdQSgJEjW7BXjufVSbMgzYjvl2cspvfhoUyG6xWhgpuvHvizJKdLih12F6LNOhIgzOmxJV2P+zkKMJsCeiCxBBZ2G3UC9SrIIL26WYVmJhxJ6KxZSRP8gkQaPLMduciAxTY2tWeVUlwFbMsvwLTXU8cl6HK30wEINTyoqw/sRuRiTqMbqDC1WHVNgJEXndxO1yLMFuJxfpanEok0CDEyqgMHd0nYN/E2wUcQetfgUplHEFtt/YxG7tLSMussWDtYLzR6vZRE78vpE7I0HC/FOjAhjktTYlFqKSXvZPDXlzbkWFFrbh5N+6kUs2JKqwcQ9SkzYp0Gs0IzEHCP2yGzIsf2ycZHbbMamZAneWi1BhKbjj7TY/o1uqGUGfLVbjbWCGhSzzUQDTQjYaxGVosLMvXRsOv60FC2W51m5SM/SBZ/LBbHCiKWU4ny+m1KcVD2iqe79AhPl81Zu3pyyAjRROSmVW35Iic+SlJh1VE+DTQMOCIyIyLHQIJhSEUcDzoiM2JBThVQzNbsmCxYxsBPU+IkiPYIe7D9dhp8PqTFhN9WXrMKXh3Q4Wu5GnZ/hyZZ7dkGQr8fPB5SYuFuBL/aqMTutEgLqzdr24wnCamvA0YxyrBPWweZj+6Kxh4Nw1DgQS9cxucx5zXtOhg/YTzyDVwe+jYOHjkAqLYZEIoVYLDnP7MaDMxmZ+HHOvHNgVxgMVw32esqxh1COPbugDn7usWY6n1923jpPdCFbycHWi59l05JBanRGdTnW7i/GuAQtch1X8sG10rEpsrE6Or1udG50XmzKkdV1abHnqOtnx/m1clQHN5XqMmM+9UbvxSkpFenwIyg2Dx9s5s7nkqIywb9X5gYqDMA+ix9/nMt9o8h+//HmW+9g+IjReO/9DzHsvfP9/vCPMOSd9/Dsc/3wtzvu4b6guRawN+zLx5Cdioum+65EDBC2/7mSTd8dkGFaQgmW5NeC+9LyFhVroA31DuQXUA8VXYTh8aXYpAqv37jf8mAzxWzbiTcGDcE93R7CPfeS2d9f8d333I8ePR7BrB/mwmK9ij1oOLB9SDouotSjFMuL7Oem265UPrcX+mItZkXmYNRmMXXLJghCv7u4NdUKL+XKpcWUbizNwdD1Ivx0ygypvcM8YRgoLMBmefKe5P1Yt2ET1q7fyP39Na9eu4HLs0UiMXw0cLpysXMLQlduRYbGDpHF2zbAuQo1ef2oo0FgdBrb2LQG6nr/VR/rZqnJ54et2oroEwYkCa1Q2Hzn/XgrHBQWYPPidaXiwebVJcWDzatLigebV5cUDzavLikebF5dUmEBNvu2jTdv5sul5pYGm5Vgb8br98Pt9fL+jZvtQ8N4uByFRcRmv21gN+Ty/m2bwXq53PA5Nq8uKR5sXl1SPNi8uqR4sHl1SfFg8+qS4sHm1SUVFmCzoszsbpRLmW8ovDoqLMB2Ol2wWmtQUqIiK0Nm/9/2b7VGQ89bz93Qy4tXWIB9OOUoPvhwNLc88L3dH8Z997e7Jx7o0YtbSvibb6dDqVLD4+E3V+IVBmCzYmwV1V69++B//noXB3b3Bx9Fd4L6rm4Pchss/flvd+MP/3M7Pv3sS+Tm5l35zbu/YbE7yX3OOhzNM0Bh9cB+bs298FZYgM2WX2D7zLzw4qtYsXINkpP3ISp6Gz4c9Ql6PvYkunXvwW2y9Jfbu3Fwp6WduqIeIdzFxhhsYXe28umV7svU4vOiXl+KZ6fnY1GeDZKGrpHKhQ3YbMGckdxKUHrucafLhYWLlqFP35fwdB9KRaZ9j56PEuT3PYQPRoxGWvoZrlyXVzCAWlst9qfKsL/cj1pu4ZrLVzvYT3+fj4U82JfUDQWbLYCj1bat3dfodHJ70PTtNwBvD3kfJUoVtx9k3/6vcHs+DnxzCPcYWz/7hupsC53jZczKtBIwbFmHS4o9xxa9oeNRBL5stfpRZjJj0qZMzJW7YWCLXF6OWB10PkG/D/5KLfpcKmJzS1FczqwTe/7yPtObobACu+OilNzmSgTys8+/iJdeGQixRIYDBw9jwsTJeKjn4/jLbfdQRF/KbVd95WLnFkRFVR1UFie0NWzXgHrsk1RDWuNHXVMLty2FSm3CiiNyzD2iRnSRFeKa9vVCWmC22qEw2iGucECqqcSKw3IsP6nHPmU9dM7z4XO7vNDoLNh1SomZBxRYl1uFM0Y3bIHQNWr2QWWug9LSiIo6L8r0NuxV1EJV7YBEa0XMCRVeWZKBoclarM41IU3rgJZt5HKhOEibIJQbEJlagoj0MmwtMOJYXgmemlmAhfm1bWAz6KknUJWasCNdiSUpSiw7bcC+Mhe30P059Fm5gB+lWgv25mmx5lQZNhVUo7jOB0u1DeLyOihqvOfKt7jdKCm3ocjogIVb7f3GKWzBtjsc+Hn+Im7pMzaAZNvi9e0/AL2ffh73PdATt9/VHZ99PgnV1ZYrnwLkAPBg7b4CDNtaiCGbhJiyMR89I4oQIbIiv8yMtDNyvLQgG69Gy/FGpADPrxJgyHYNTnILULuRdEiG0Wtz0X+1AJNjxHgzWoq+S7LwxHIBRu6tgCa0pF+TnSA9JsewJZm4f6UYg2IleGpxFl7ZKMWcTCscdCpoqMb3CYV4e1MBRkaL8dmqLDwVVYLoPA0iqGG9vjIXf551BvetEKDvBhGmHDcgxXDhyk2t8FIvp86X44mZZ/D8OhEGREswOEqAYSuzcPtsAeYJ6iBvbIHH6YE8T45nf8xE33USDNgsxktr83HP3GxESBtQUh/grpHP48GpNDFemZ+NZyIE6BcpxNuxYqwsskEoUGFyVCFGJWhwzMIacitOpYoxeosEXxwxQc12mrqBCluwvT4fttIAcuCgobj97u64694HcPe9D+IeyrHZ/jPMo0aPu6YlzjYfLMQLK/Px4uZiRAks0NmcaKy34GCGAp9tEePTU3WhF3iRUcBWHi3C0KPVFO+bcOCABGPWF2LEHh1UbkYn8WkwY1USAbVaiB/kXqoniKzMYkyMEmLILj1EzrZy1eoKLIkX4vVNUqzR0bm7azA9UYBnVhZgYKwKe4utMNnd8LG1+pwuFIt0GDL/NBbIGmHkdgrr5No2u1FaWo4vlmZg8G4DRDY/RdIgXA47ik6JcceMAswvJLAdbmi0lfhk0Sm8cdAISZ2fkGyGtcaG+MR83BchRaSiHma3B0alHq/MOYX3DpbjZCXbFa0ZrWcDoA6NOgYfjp0uwdRtIoyi45iNJkxYl4vvUw04Zv5loc4bpbAFm8lsNiMjMxvRsdsRFbMNMdt2YN2GSHz8yfjrsLlS28Lv78SrMLeg/hwqHqMZ6ygaD9lWjD0GH3w+P7falESux4rdQvRLMsBHYO/ZL8WUWDlmZdRw2XOb/MiSlOL77YV4fb8VzY1OrIkrxBcJSkRwu3KFdLYBJ3KVmEAR8K0jlhDYRRiZrMFaxfn7Vp51eVAsrsA7809hvsILg6fzHDtQa0duTgmeXZqHBEMrrKGIGfR74TSU4XnKsZcLKH2otCCPou1TcwRIrGpCTWiTmaDXh0a1Hs/Mz8Ls7Gqc1NUh95QMPWYX4YA5AEsnnaLLasOhNAXeXpqN99bn4N0dZThI6cwFmdgNUViD3ZlcLjeio7dfvx0NdpVgVoetOqpVJiyKE+IpSh2GUzT6OVGMeeSvNuXi/dX5GLrHSPg2IZnAnhwjx/QzVi4vbVMAihKKxgkiPLxNyzXMOZuK8FWiBrH6jqmDH0UiPeZTCvPaXhO1phrMSCrCiCQ1VsrP3yG31emGXFSOoQT2vGLPJcF2VNmQcrwYvZcV4JSd/h0C8dx034x8RBTYkKOuwsF0GbqtkCK/rhXO9lyYcmlYKvHyqlz8cKYSe6VmHEgR4c5VSmRTatI5rAHoKPqv2pyDf56ag0XCBqgp1bkZ6nJg34g9aDqCbVNXYlmiCC9QTj3xcDk2nmzzBnJMlgnpWidFaB+S90oxifLv88FugkxRjkUJQjy+sxw1Fivmbi7EZAa2ruM3pn6ICNaFBParydcHbLuJouexYjy+NB8nCOz2NSYvAruUwD4tw90REuQQ2A3nwKZ3YTXhFQJ79ulKJIvN2Edg37GiBNl1BHZnvAb9UFJD/ml9Bv712wxuCw7pNe5UcLniwe5MvwK2t6IKmw7KMCKuBKmXnHBxITFZiq8oYs/Oqgk9Rmr1IaNQg+nbBHj/aC1a3W6sTRBgfIICiyg/PqfWRqTmqDCBBq1Dj1g5sKcT2B90AvZZAruYwGapyGK1H8ZLLJjebKtHTpYCvRbnYJs+CGto+Vg23eet1KIvS0UKKRUxWVBQoMRTP+RjV2UTpSxtx2OpiEulw9M/Z2MOpSJpulpkpUnxwKwiHLQEztuNrE1nUaMzIe6wFIOoJ5u2LRf91kqxUVIP4w0eODLxYHemXwEbXjsOnVZg9FoB3t5jQH1zEM1ssfcmGjQ1eFBVR4NCGkweOCDFx2sLMSS+FNlmFo0pD1UbsGyXCAPXi7FcxQZQQWRmFeNLGjwO3qlDgZ1t3tGMqhJKQ3YWcTMj6/X0mKsG31OOPbwTsOH1oIR6gWFL0jD6RDUKDA1odHvhoPxdVWzEcoquRTRQbPDRoJAGj5/S4PHVXVqcNrrhpLFBvaUGKYeL8FcCmxs8NrhQqjfis4WnMWi/AYW1fgSCdO5VVkTtzMP9y2XYorDT4NENvUKHF2afxgf7y3G0vBFuSleCAS+sTh9anPVISJFh8nYZ5hTUIkDv4dt1ORi3pxSxqvPHCTdCPNidiQPbg4jdOXg5ppjbUNNz7nRbUWOsxt5DIjw7Kx39t0rwQRxF8GgRxsTKEJHLInQTDh0qxscROXhySS7GxBTiox1CvLDwDPquEmJKajUsofzEb6/FvuMyvE/APUjPjYsTo//STLy2UYKfMqyoZfU6zJi0PQ9v7FBgoahDZGdqbYal2oqt8dn4/fQM9F6Yhy/2qRFVoMehPXn4t+9zsFLaAJ2PTfe5oM5X4OkZaXhmZSHeiBJhbGwhpm3Kw12zsvFDfi1EDS3w0IBUIShGnx9PU+MS411qeENp8PfQ3GysljVAyRrg2SC1KRelN0I8TXA/uTwPr26lxkfjjhknK7D7iBCjtggx4bARitAkiCRHjnEbBRgZV4rTts57luslHuxOxc4tCBXbBlnfACFFvPM/hha43E4I5SZEnCzDghPkNAMiBTYIaljU9WLPfjkmbRHj8/1lOKkwY/EJHZZlmHC41IlK9/nv3dVIebK6GuvStZibqsOqXDPSKtywNYXKBXwoLLfhNJ2Lov7iZDYYaIHbZkdcdgXW0sAuobgehdUu1JhrkCiugbohgLYZR/YuKH+XVSImoxwRGQZE0/MKUyMyS2zcnpN1rE7uCxr2RY4RmzP0WEjnviKzEkmqBu4I586elfN5ICg2IyazHEvS9FSuCifK6dqUWnFa10A59S8jDFA6Iy2txWmNHapzWx3fGIUV2CM/Hksnagg907kaGxuxZWv0NYJ9rXIjiXLsiZRjz8zokGPzumkKG7DZr/sGvDYYu/fsRYGgELm5+Rc5v6AQx46fwIyZP+KO/2WwE5Ml+CJKjm8pnbjZtfMKE7BnzJzN/R77tju7o9+LA7gfOL06cPBFfp0eH/DaIPR+ui/3lfrIUVe5a9g1y42Ug1L8uF2ORVkdp/t43SyFBdjxCbvR/6XX8Ls/3obf/+l2/PHPd5DvDP3t6Nvxp7/cSeX+hr/e3g2zZ/+Mmhob9yZvrlrQ6PBAZ2iEhvLWm107rzAAm8nr9UJRUoKTaek4cTINJ0+m/6pPnGDl0rl83OFouKK6ro9YfWe5ixsMXv4Kobyun8ICbCZ2ooFA4IrcBhYfL3+LChuwefG6EvFg8+qS4sHm1SXFg82rS4oHm1eXFA82ry4pHmxeXVI82Ly6pHiweXVJ8WDz6pLiwebVJcWDzatLigebV5fUjQb7j+SLwGa7DrhcLt68b6g7AbsbmQXb6wL23eQe0dHRFlZJdXU1NBoNlEolb9431Fqt9hzYEydO/IE47Ag2Y/SqwP4P8h/Id5EfZGDL5XKkp6fj+PHjvHnfFGdlZbWDPYs4ZEGWBdtrAvvfyb8n30G+f82aNdWbN2/GunXrePO+qWbchcC+k8yCLQu61wz238j3PvnkkwPfeOONiQMGDJj60ksvTX/xxRdn9e/ff3a/fv1+4s37OvlHxhRjizHGWBs4cOCkwYMHj3/llVdeJA5vCzHJ2LxisFnBfyL/G/m/yX8msy7gIfIT5D5kVskA8ushv8Gb93XwQDLjibHVn/wcmTHXg8wY/AuZMcnYZIwysP8u1EztYP8j+V/JLOSznIaL2mRWwWPkJ8nPklnFz5P78uZ9ncx4Ymw9Re5FZgH1PjKL1mzgyJhkMyKM0csGm4kVbE9HWMv4HZkdkOXabFT6APlh8qNkBjmr/HHevK+DGUvMj5AZY4w1xhzLrdn8NWORBdwrSkPa1TFqswOwFvJfZAY36wpYy2EVsa6BzXGzinnzvp5mbLHZuNvJjDnGHmOwPbduj9ZXDHZ71GZ5DAv7LHKzA7P8hqUmrCLWglilvHlfb7NxHeOLscaiNGOPMdgxBWmH+rLBZmKF2Qvb4WathHUB7ODtEbwddN68r7fb+WKssSjNuGMMtg8YrwrqdnWEuyPg7ZB3NKuYN+9r9YVcsQjdztw1ReoL1Q53O+Ds4J2ZQc+b97W6M7ba3c7hNUPdrvYDdYScN++b7esG9K+pI+y8ed9I8+LFixcvXrx4hY/+4R/+P4e70Q4/D8SIAAAAAElFTkSuQmCC;" vertex="1" parent="1">
          <mxGeometry x="-650" y="790" width="60.26" height="50" as="geometry" />
        </mxCell>
        <mxCell id="d7iimS9ClQlRTDr_-M0m-71" value="&lt;b&gt;DynamoDB&lt;br&gt;&lt;/b&gt;Saving state of the app" style="text;html=1;align=center;verticalAlign=middle;resizable=0;points=[];autosize=1;strokeColor=none;fillColor=none;" vertex="1" parent="1">
          <mxGeometry x="-755" y="650" width="150" height="40" as="geometry" />
        </mxCell>
        <mxCell id="d7iimS9ClQlRTDr_-M0m-72" value="&lt;b&gt;S3 bucket&lt;/b&gt;&lt;br&gt;&lt;ul&gt;&lt;li style=&quot;text-align: left;&quot;&gt;reports files&lt;/li&gt;&lt;li style=&quot;text-align: left;&quot;&gt;payload .json&lt;/li&gt;&lt;li style=&quot;text-align: left;&quot;&gt;raw data in .csv&lt;/li&gt;&lt;/ul&gt;" style="text;html=1;align=center;verticalAlign=middle;resizable=0;points=[];autosize=1;strokeColor=none;fillColor=none;" vertex="1" parent="1">
          <mxGeometry x="-760" y="840" width="150" height="100" as="geometry" />
        </mxCell>
        <mxCell id="d7iimS9ClQlRTDr_-M0m-75" value="&lt;b&gt;Client&lt;/b&gt;" style="text;html=1;align=center;verticalAlign=middle;resizable=0;points=[];autosize=1;strokeColor=none;fillColor=none;" vertex="1" parent="1">
          <mxGeometry x="-430" y="529" width="60" height="30" as="geometry" />
        </mxCell>
        <mxCell id="d7iimS9ClQlRTDr_-M0m-76" value="&lt;b&gt;API Gateway&lt;/b&gt;" style="text;html=1;align=center;verticalAlign=middle;resizable=0;points=[];autosize=1;strokeColor=none;fillColor=none;" vertex="1" parent="1">
          <mxGeometry x="-287.5" y="760" width="100" height="30" as="geometry" />
        </mxCell>
      </root>
    </mxGraphModel>
  </diagram>
</mxfile>
